<?xml version="1.0" encoding="UTF-8"?>
<svg version="1.1" viewBox="0 0 269.12 247.01" xmlns="http://www.w3.org/2000/svg">
<g transform="translate(-105.44 -56.597)">
<g stroke-dasharray="" stroke-miterlimit="10" style="mix-blend-mode:normal" data-paper-data='{"isPaintingLayer":true}'>
<path d="m128.94 80.098c30.668-30.668 80.392-30.668 111.06 0 30.668-30.668 80.392-30.668 111.06 0 10.11 10.11 16.888 22.291 20.332 35.178h-262.78c3.4443-12.887 10.222-25.068 20.332-35.178z" fill="#fef433" fill-rule="evenodd" stroke="#fef433"/>
<path d="m108.61 115.96h262.78c5.7797 21.624 2.1741 45.236-10.817 64.381h-241.15c-12.991-19.146-16.597-42.757-10.817-64.381z" fill="#fff" fill-rule="evenodd" stroke="#fff"/>
<path d="m240 302.9-58.179-58.179h116.36z" fill-rule="evenodd" stroke="#000"/>
<path d="m351.06 191.84-52.881 52.881h-116.36l-52.881-52.881c-3.5925-3.5925-6.7642-7.4465-9.515-11.501h241.15c-2.7508 4.0542-5.9225 7.9082-9.515 11.501z" fill="#9a59cf" fill-rule="evenodd" stroke="#9a59cf"/>
<path d="m268.85 216.43 22.572-9.4942 8.3543-25.652c1.3837-4.2557 4.9555-7.0765 8.9511-7.0765 3.9869 0 7.5587 2.8208 8.9511 7.0765l8.3543 25.652 22.564 9.4942c3.7534 1.5824 6.2355 5.6317 6.2355 10.172s-2.4821 8.59-6.2355 10.172l-22.564 9.4942-8.3543 25.652c-1.3924 4.2557-4.9642 7.0765-8.9511 7.0765-3.9956 0-7.5673-2.8208-8.9511-7.0765l-8.3543-25.652-22.572-9.4942c-3.7448-1.5824-6.2268-5.6317-6.2268-10.172 0.00865-4.5407 2.4907-8.59 6.2268-10.172" fill="#ffac33"/>
<path d="m135.19 112.32 18.238-7.3833 6.75-19.949c1.118-3.3095 4.0039-5.5031 7.2322-5.5031 3.2213 0 6.1072 2.1936 7.2322 5.5031l6.75 19.949 18.231 7.3833c3.0326 1.2306 5.038 4.3795 5.038 7.9107s-2.0054 6.6801-5.038 7.9107l-18.231 7.3833-6.75 19.949c-1.125 3.3095-4.0109 5.5031-7.2322 5.5031-3.2283 0-6.1141-2.1936-7.2322-5.5031l-6.75-19.949-18.238-7.3833c-3.0256-1.2306-5.0311-4.3795-5.0311-7.9107 0.00699-3.5311 2.0124-6.6801 5.0311-7.9107" fill="#ffac33"/>
</g>
</g>
</svg>
